PathFileType	4	(X/Y/Z)	KinectSkeleton.trc																																																	
DataRate	CameraRate	NumFrames	NumMarkers	Units	OrigDataRate	OrigDataStartFrame	OrigNumFrames																																													
60	60	8	17	mm	60	248	300																																													
Frame#	Time	Neck			ShoulderMid			R.Shoulder			L.Shoulder			R.Elbow			L.Elbow			R.Wrist			L.Wrist			HipCenter			R.Hip			L.Hip			R.Knee			L.Knee			R.Ankle			L.Ankle			R.Foot			L.Foot		
		X1	Y1	Z1	X2	Y2	Z2	X3	Y3	Z3	X4	Y4	Z4	X5	Y5	Z5	X6	Y6	Z6	X7	Y7	Z7	X8	Y8	Z8	X9	Y9	Z9	X10	Y10	Z10	X11	Y11	Z11	X12	Y12	Z12	X13	Y13	Z13	X14	Y14	Z14	X15	Y15	Z15	X16	Y16	Z16	X17	Y17	Z17
																																																				
248	16.091	-1701.781	1402.845	300.85	-1701.781	1402.845	300.85	-1687.166	1503.643	436.866	-1725.452	1250.38	195.772	-1658.194	1747.525	592.154	-1842.535	992.246	227.147	-1575.431	1974.739	608.662	-1725.68	807.949	325.473	-1705.967	923.325	551.005	-1708.79	949.282	631.739	-1702.836	894.539	461.474	-1733.252	538.545	663.485	-1733.463	485.022	416.338	-1793.831	144.702	683.588	-1787.153	96.585	370.267	-1649.033	53.606	732.306	-1599.013	52.893	361.892
249	16.152	-1701.408	1393.929	298.253	-1701.408	1393.929	298.253	-1686.33	1502.354	425.274	-1722.771	1244.302	192.736	-1651.142	1756.259	559.613	-1847.441	992.218	232.509	-1563.217	1980.83	548.989	-1719.469	812.472	322.745	-1701.816	923.211	558.243	-1704.449	950.547	638.165	-1698.895	892.896	469.612	-1732.431	541.427	666.08	-1731.42	485.626	420.832	-1791.558	148.871	683.663	-1787.566	99.741	370.091	-1650.09	53.654	731.668	-1601.388	51.4	361.384
250	16.213	-1694.528	1385.775	295.022	-1694.528	1385.775	295.022	-1683.369	1498	417.503	-1718.429	1234.314	194.62	-1645.095	1759.678	531.203	-1848.688	987.323	237.602	-1551.114	1977.865	496.241	-1715.588	812.776	327.3	-1697.333	923.074	561.468	-1698.35	950.831	640.809	-1696.205	892.292	473.483	-1729.481	544.193	669.67	-1729.848	487.231	425.41	-1789.296	153.94	688.704	-1787.538	103.534	375.922	-1652.877	52.859	735.869	-1603.823	51.535	360.806
251	16.274	-1698.704	1380.182	291.885	-1698.704	1380.182	291.885	-1681.788	1494.859	409.69	-1720.271	1225.947	195.266	-1642.409	1759.37	513.924	-1848.674	979.857	243.259	-1538.628	1967.501	457.067	-1717.368	805.979	335.035	-1692.504	922.637	563.986	-1691.85	951.751	642.578	-1693.23	890.35	476.829	-1727.528	546.552	669.351	-1728.695	486.997	426.012	-1793.862	158.382	684.968	-1784.945	104.543	374.357	-1662.319	53.264	735.133	-1601.824	51.957	361.342
252	16.338	-1701.023	1378.659	285.018	-1701.023	1378.659	285.018	-1682.693	1495.157	402.126	-1719.948	1218.469	195.101	-1635.226	1764.975	489.862	-1848.627	972.481	246.477	-1529.06	1965.81	412.569	-1716.771	800.798	342.853	-1690.001	923.963	561.077	-1689.867	953.353	639.771	-1690.15	891.371	473.809	-1725.594	547.378	668.618	-1727.321	486.891	425.869	-1794.362	158.78	685.41	-1786.458	103.593	377.155	-1662.108	52.259	732.009	-1602.831	51.878	361.694
253	16.398	-1700.014	1378.154	284.976	-1700.014	1378.154	284.976	-1680.117	1494.72	401.609	-1718.638	1217.364	195.558	-1630.772	1764.484	488.636	-1847.934	971.591	246.688	-1526.037	1963.183	404.081	-1715.524	799.858	342.317	-1689.851	923.91	563.121	-1689.892	953.892	641.607	-1689.805	890.66	476.083	-1723.885	547.635	669.58	-1728.059	486.445	426.187	-1788.016	158.193	686.799	-1786.409	103.249	375.219	-1653.804	53.006	730.879	-1602.217	52.775	362.151
254	16.46	-1697.932	1377.621	284.604	-1697.932	1377.621	284.604	-1680.951	1495.507	398.911	-1716.591	1217.463	194.824	-1625.503	1764.208	484.226	-1842.032	970.564	247.944	-1507.703	1955.02	399.636	-1713.959	796.097	343.719	-1686.72	923.394	561.619	-1685.826	952.977	640.127	-1687.711	890.587	474.556	-1723.538	547.663	668.782	-1726.707	486.805	426.378	-1789.854	159.231	687.944	-1785.699	103.961	377.687	-1654.378	54.481	728.043	-1602.274	52.482	361.892
255	16.523	-1695.941	1381.276	282.898	-1695.941	1381.276	282.898	-1678.552	1497.372	398.031	-1713.514	1222.535	190.192	-1617.838	1763.635	486.743	-1840.711	977.41	246.35	-1501.008	1955.076	402.646	-1713.342	800.318	337.79	-1686.089	923.933	557.734	-1684.216	953.77	636.074	-1688.166	890.845	470.858	-1720.141	548.768	667.714	-1726.891	487.013	425.059	-1795.943	162.3	686.443	-1785.184	104.069	378.264	-1661.85	57.92	731.389	-1601.587	53.922	361.628
